<svg xmlns="http://www.w3.org/2000/svg" viewBox="0 0 1024 1024" role="img" aria-labelledby="title desc">
<title id="title">RAFIQ | رفيق</title><desc id="desc">رفيق — نصل بالحب والأمان لرعاية العائلة</desc>
<defs><linearGradient id="g" x1="0" y1="0" x2="1" y2="1"><stop offset="0" stop-color="#0a6d3f"/><stop offset="1" stop-color="#1b9b5b"/></linearGradient><linearGradient id="gold" x1="0" y1="0" x2="1" y2="1"><stop offset="0" stop-color="#a9790e"/><stop offset=".45" stop-color="#f2cf61"/><stop offset="1" stop-color="#b57f12"/></linearGradient><linearGradient id="red" x1="0" y1="0" x2="1" y2="1"><stop offset="0" stop-color="#b91318"/><stop offset="1" stop-color="#ef3430"/></linearGradient><filter id="s" x="-30%" y="-30%" width="160%" height="160%"><feDropShadow dx="0" dy="10" stdDeviation="10" flood-color="#123a2a" flood-opacity=".20"/></filter></defs>
<g fill="none" stroke="url(#gold)" stroke-width="12" stroke-linecap="round"><path d="M190 665C90 540 120 335 255 215"/><path d="M834 665C934 540 904 335 769 215"/></g><g fill="url(#gold)"><ellipse cx="150" cy="535" rx="22" ry="8" transform="rotate(-62 150 535)"/><ellipse cx="142" cy="470" rx="22" ry="8" transform="rotate(-55 142 470)"/><ellipse cx="151" cy="404" rx="22" ry="8" transform="rotate(-46 151 404)"/><ellipse cx="177" cy="340" rx="22" ry="8" transform="rotate(-36 177 340)"/><ellipse cx="222" cy="284" rx="22" ry="8" transform="rotate(-27 222 284)"/><ellipse cx="874" cy="535" rx="22" ry="8" transform="rotate(62 874 535)"/><ellipse cx="882" cy="470" rx="22" ry="8" transform="rotate(55 882 470)"/><ellipse cx="873" cy="404" rx="22" ry="8" transform="rotate(46 873 404)"/><ellipse cx="847" cy="340" rx="22" ry="8" transform="rotate(36 847 340)"/><ellipse cx="802" cy="284" rx="22" ry="8" transform="rotate(27 802 284)"/></g>
<path d="M240 425L512 160L784 425V650H240Z" fill="#fff" stroke="url(#gold)" stroke-width="10" filter="url(#s)"/><path d="M200 420L512 112L824 420L770 420L512 165L254 420Z" fill="url(#g)" stroke="url(#gold)" stroke-width="9"/><path d="M686 242h75v114h-75z" fill="url(#g)" stroke="url(#gold)" stroke-width="8"/>
<path d="M512 615C485 588 325 480 325 355C325 282 384 226 456 226C486 226 505 237 512 258C519 237 538 226 568 226C640 226 699 282 699 355C699 480 539 588 512 615Z" fill="url(#red)"/><circle cx="451" cy="336" r="44" fill="url(#g)"/><path d="M389 470C389 406 416 369 451 369C486 369 513 406 513 470Z" fill="url(#g)"/><circle cx="575" cy="374" r="36" fill="url(#gold)"/><path d="M527 480C527 428 547 398 575 398C603 398 623 428 623 480Z" fill="url(#gold)"/>
<path d="M286 530C360 486 435 486 508 535C558 569 615 585 688 542C709 530 731 536 740 553C748 570 741 589 724 599C643 650 559 662 482 629C413 599 356 586 302 605C276 614 259 598 260 575C261 556 269 542 286 530Z" fill="url(#g)"/><path d="M486 540c37-17 70-16 104 3" fill="none" stroke="#fff" stroke-width="9" stroke-linecap="round" opacity=".85"/><path d="M470 505l42-35 42 35v48h-84z" fill="#fff" opacity=".95"/><path d="M490 552v-28h44v28" fill="url(#gold)"/><path d="M490 514h44" stroke="url(#gold)" stroke-width="7"/>
<text x="512" y="758" text-anchor="middle" font-family="Georgia,Times New Roman,serif" font-size="126" font-weight="700" letter-spacing="5" fill="#13763e">RAFIQ</text><path d="M240 798C345 773 679 773 784 798" fill="none" stroke="url(#gold)" stroke-width="12" stroke-linecap="round"/><path d="M512 792c-17-21-55-2-55 23c0 31 55 65 55 65s55-34 55-65c0-25-38-44-55-23z" fill="#d51f2a"/><text x="512" y="882" text-anchor="middle" direction="rtl" font-family="Arial,Tahoma,sans-serif" font-size="41" font-weight="700" fill="#17613b">نصل بالحب والأمان لرعاية العائلة</text>
</svg>